# xmcd
#
# Track frame offsets:
#	150
#	13457
#	28664
#	45469
#	61923
#	78254
#	93736
#	111121
#	126211
#	141791
#	158814
#	173456
#
# Disc length: 2525 seconds
#
# Revision: 3
# Processed by: cddbd v1.5.1PL2 Copyright (c) Steve Scherf et al.
# Submitted via: EasyCDDAExtractor 9.0.0.1
#
DISCID=9709db0c
DTITLE=Dolhai Attila - Ébredjen a nap
DYEAR=2006
DGENRE=Pop
TTITLE0=A tegnapi ölelés
TTITLE1=Mindig szép
TTITLE2=Ne menekülj
TTITLE3=Pillanat
TTITLE4=Kell ez a tánc
TTITLE5=Néhány város
TTITLE6=Ébredjen a nap
TTITLE7=Gyere már
TTITLE8=Keresem, kutatom
TTITLE9=Van ami sikerül
TTITLE10=Szállnak a felhõk
TTITLE11=Hazatérsz
EXTD=
EXTT0=
EXTT1=
EXTT2=
EXTT3=
EXTT4=
EXTT5=
EXTT6=
EXTT7=
EXTT8=
EXTT9=
EXTT10=
EXTT11=
PLAYORDER=
